<?xml version="1.0" encoding="UTF-8"?>
<svg version="1.1" xmlns="http://www.w3.org/2000/svg" width="512" height="512">
<path d="M0 0 C1.24036396 -0.00382555 2.48072793 -0.00765109 3.75867867 -0.01159257 C7.16683 -0.0200661 10.57476323 -0.01971191 13.98290777 -0.01541197 C17.67221019 -0.01292969 21.36148803 -0.02197749 25.05078125 -0.02944946 C32.2655341 -0.04215751 39.48024966 -0.04399499 46.69501182 -0.0416492 C52.56415769 -0.03986132 58.4332923 -0.04162573 64.30243683 -0.04587364 C65.1399012 -0.04646883 65.97736557 -0.04706402 66.84020765 -0.04767724 C68.54190554 -0.04888908 70.24360343 -0.05010322 71.94530132 -0.05131962 C87.88170245 -0.0621804 103.81808238 -0.06003975 119.75448468 -0.05393478 C134.30555707 -0.0487683 148.85656246 -0.06001655 163.40762159 -0.07903299 C178.37848936 -0.0984468 193.3493255 -0.10666111 208.32020593 -0.10290974 C216.71320568 -0.10100289 225.10614845 -0.10343464 233.49913788 -0.11762428 C240.6452385 -0.1295844 247.79124706 -0.13089147 254.93734905 -0.11883412 C258.57685334 -0.11297741 262.21618963 -0.11175597 265.85568237 -0.12383652 C283.47308438 -0.17832937 300.0540247 -0.03151444 316.68609619 6.44819641 C317.87259766 6.9010199 317.87259766 6.9010199 319.08306885 7.36299133 C343.42479413 16.91409476 364.53820148 33.75235014 378.12359619 56.26069641 C378.80808838 57.38475891 379.49258057 58.50882141 380.19781494 59.66694641 C384.34415636 66.78854014 387.35827896 74.14833466 389.99859619 81.94819641 C390.2849292 82.79059875 390.57126221 83.6330011 390.86627197 84.50093079 C394.33715057 95.27881238 395.42179564 105.85460036 395.3842926 117.13710022 C395.38811815 118.37746418 395.3919437 119.61782815 395.39588517 120.89577889 C395.4043587 124.30393022 395.40400452 127.71186345 395.39970458 131.12000799 C395.39722229 134.80931041 395.40627009 138.49858825 395.41374207 142.18788147 C395.42645011 149.40263432 395.42828759 156.61734988 395.4259418 163.83211204 C395.42415392 169.70125791 395.42591833 175.57039252 395.43016624 181.43953705 C395.43076143 182.27700142 395.43135662 183.11446579 395.43196985 183.97730787 C395.43318169 185.67900576 395.43439582 187.38070365 395.43561222 189.08240154 C395.446473 205.01880267 395.44433235 220.9551826 395.43822738 236.8915849 C395.43306091 251.44265729 395.44430915 265.99366267 395.4633256 280.54472181 C395.4827394 295.51558958 395.49095371 310.48642572 395.48720235 325.45730615 C395.48529549 333.8503059 395.48772724 342.24324867 395.50191689 350.6362381 C395.513877 357.78233872 395.51518407 364.92834728 395.50312672 372.07444927 C395.49727001 375.71395356 395.49604858 379.35328985 395.50812912 382.99278259 C395.56262197 400.6101846 395.41580704 417.19112492 388.93609619 433.82319641 C388.48327271 435.00969788 388.48327271 435.00969788 388.02130127 436.22016907 C378.47019784 460.56189435 361.63194246 481.6753017 339.12359619 495.26069641 C337.99953369 495.9451886 336.87547119 496.62968079 335.71734619 497.33491516 C328.59575246 501.48125658 321.23595794 504.49537918 313.43609619 507.13569641 C312.59369385 507.42202942 311.7512915 507.70836243 310.88336182 508.00337219 C300.10548022 511.47425079 289.52969224 512.55889586 278.24719238 512.52139282 C277.00682842 512.52521837 275.76646446 512.52904392 274.48851371 512.53298539 C271.08036238 512.54145892 267.67242915 512.54110473 264.26428461 512.5368048 C260.57498219 512.53432251 256.88570435 512.54337031 253.19641113 512.55084229 C245.98165828 512.56355033 238.76694272 512.56538781 231.55218056 512.56304202 C225.68303469 512.56125414 219.81390008 512.56301855 213.94475555 512.56726646 C212.688559 512.56815925 212.688559 512.56815925 211.40698473 512.56907007 C209.70528684 512.57028191 208.00358895 512.57149604 206.30189106 512.57271244 C190.36548994 512.58357322 174.42911001 512.58143257 158.4927077 512.5753276 C143.94163531 512.57016113 129.39062993 512.58140937 114.83957079 512.60042582 C99.86870302 512.61983962 84.89786689 512.62805393 69.92698646 512.62430257 C61.5339867 512.62239571 53.14104393 512.62482746 44.7480545 512.63901711 C37.60195388 512.65097722 30.45594533 512.65228429 23.30984333 512.64022694 C19.67033904 512.63437023 16.03100275 512.6331488 12.39151001 512.64522934 C-5.225892 512.69972219 -21.80683231 512.55290726 -38.43890381 506.07319641 C-39.62540527 505.62037292 -39.62540527 505.62037292 -40.83587646 505.15840149 C-65.17760174 495.60729806 -86.2910091 478.76904268 -99.87640381 456.26069641 C-100.560896 455.13663391 -101.24538818 454.01257141 -101.95062256 452.85444641 C-106.09696397 445.73285268 -109.11108658 438.37305816 -111.75140381 430.57319641 C-112.03773682 429.73079407 -112.32406982 428.88839172 -112.61907959 428.02046204 C-116.08995819 417.24258044 -117.17460326 406.66679246 -117.13710022 395.3842926 C-117.14092577 394.14392864 -117.14475131 392.90356468 -117.14869279 391.62561393 C-117.15716632 388.2174626 -117.15681213 384.80952937 -117.15251219 381.40138483 C-117.15002991 377.71208241 -117.15907771 374.02280457 -117.16654968 370.33351135 C-117.17925773 363.1187585 -117.18109521 355.90404294 -117.17874942 348.68928078 C-117.17696154 342.82013491 -117.17872595 336.9510003 -117.18297386 331.08185577 C-117.18356905 330.2443914 -117.18416424 329.40692703 -117.18477746 328.54408495 C-117.1859893 326.84238706 -117.18720344 325.14068917 -117.18841984 323.43899128 C-117.19928062 307.50259016 -117.19713997 291.56621023 -117.191035 275.62980792 C-117.18586852 261.07873553 -117.19711677 246.52773015 -117.21613321 231.97667101 C-117.23554702 217.00580324 -117.24376133 202.03496711 -117.24000996 187.06408668 C-117.23810311 178.67108692 -117.24053486 170.27814415 -117.2547245 161.88515472 C-117.26668462 154.7390541 -117.26799169 147.59304555 -117.25593434 140.44694355 C-117.25007763 136.80743926 -117.24885619 133.16810297 -117.26093674 129.52861023 C-117.31542959 111.91120822 -117.16861466 95.33026791 -110.68890381 78.69819641 C-110.38702148 77.90719543 -110.08513916 77.11619446 -109.77410889 76.30122375 C-100.22300546 51.95949848 -83.38475008 30.84609112 -60.87640381 17.26069641 C-59.75234131 16.57620422 -58.62827881 15.89171204 -57.47015381 15.18647766 C-50.34856008 11.04013625 -42.98876556 8.02601364 -35.18890381 5.38569641 C-34.34650146 5.0993634 -33.50409912 4.8130304 -32.63616943 4.51802063 C-21.85828784 1.04714203 -11.28249986 -0.03750304 0 0 Z " fill="#003366" transform="translate(116.87640380859375,-0.2606964111328125)"/>
<path d="M0 0 C39.166875 -0.12375 39.166875 -0.12375 79.125 -0.25 C91.43256592 -0.30462402 91.43256592 -0.30462402 103.98876953 -0.36035156 C114.10913086 -0.37841797 114.10913086 -0.37841797 118.86642456 -0.3817749 C122.14640417 -0.38545954 125.42611742 -0.40027803 128.70602417 -0.42230225 C154.46380099 -0.58729917 177.65358581 0.11009234 201.125 11.875 C202.16019775 12.39380737 202.16019775 12.39380737 203.21630859 12.9230957 C208.2325423 15.49170627 212.69404774 18.34999133 217 22 C218.010625 22.7425 219.02125 23.485 220.0625 24.25 C227.09003656 30.2435121 230.99571384 38.46223793 234 47 C234.56155041 48.43787122 235.12398352 49.87539817 235.6875 51.3125 C240.31500531 64.31358636 240.37733212 83.27225052 235.38671875 96.1953125 C227.92132949 111.29432515 217.15165787 125.10851153 202 133 C202.53625 133.268125 203.0725 133.53625 203.625 133.8125 C204.40875 134.204375 205.1925 134.59625 206 135 C206.845625 135.391875 207.69125 135.78375 208.5625 136.1875 C221.63085452 143.07808693 232.12715414 151.38674032 240 164 C240.75796875 165.17755859 240.75796875 165.17755859 241.53125 166.37890625 C243.22575002 169.40286773 244.39647585 172.42336342 245.5625 175.6875 C245.97628906 176.82574219 246.39007813 177.96398437 246.81640625 179.13671875 C249.63580171 187.86374725 250.31702605 196.23711472 250.25 205.375 C250.25773438 206.42171875 250.26546875 207.4684375 250.2734375 208.546875 C250.250939 217.65876642 249.56376372 226.5386557 246 235 C245.63726726 236.45622632 245.28336625 237.91467583 244.9375 239.375 C239.96699638 255.99280315 227.39360186 269.90795612 213 279 C211.5459375 280.0828125 211.5459375 280.0828125 210.0625 281.1875 C206.46401826 283.31721368 202.82966803 284.63273268 198.87890625 285.97265625 C195.89419851 286.99503552 195.89419851 286.99503552 192.68359375 288.48828125 C188.65695685 290.14078229 184.73474199 291.17805412 180.5 292.125 C179.77941406 292.29386719 179.05882812 292.46273438 178.31640625 292.63671875 C171.50814348 294.20028 164.90003518 295.12559028 157.8941803 295.12025452 C157.21603775 295.12111053 156.5378952 295.12196655 155.83920288 295.12284851 C153.57905376 295.1244925 151.31898014 295.11899844 149.05883789 295.11352539 C147.4059547 295.11321881 145.75307138 295.11335296 144.10018826 295.11389065 C139.68544092 295.11411583 135.27072084 295.10833209 130.85597992 295.10128021 C126.7089581 295.09557311 122.56194281 295.09531643 118.41491699 295.09460449 C106.29744107 295.08936319 94.17997019 295.07540198 82.0625 295.0625 C54.981875 295.041875 27.90125 295.02125 0 295 C0 197.65 0 100.3 0 0 Z " fill="#FDFEFE" transform="translate(29,103)"/>
<path d="M0 0 C9.54444474 -0.20875481 19.08810121 -0.36855302 28.63433266 -0.46630955 C33.06742741 -0.5132351 37.49895797 -0.57684821 41.93115234 -0.67895508 C46.21067978 -0.7769251 50.48870561 -0.83059252 54.76926804 -0.85389519 C56.40012635 -0.87049454 58.03090455 -0.90291344 59.66112137 -0.95157051 C72.39456684 -1.31642472 72.39456684 -1.31642472 76.23432922 1.83210754 C77.8190801 4.1593124 78.92554922 6.402451 80 9 C80.67281006 10.12253174 81.34562012 11.24506348 82.03881836 12.40161133 C82.63315674 13.4511499 83.22749512 14.50068848 83.83984375 15.58203125 C84.16988907 16.1623259 84.49993439 16.74262054 84.83998108 17.34049988 C85.8756258 19.16274081 86.90676926 20.98747593 87.9375 22.8125 C88.96172587 24.61942805 89.98691905 26.42580276 91.01260376 28.23190308 C91.68487817 29.41622289 92.35625641 30.60105189 93.02670288 31.78640747 C94.67959837 34.70328485 96.3513326 37.60706979 98.06298828 40.48974609 C99.02374268 42.10937256 99.02374268 42.10937256 100.00390625 43.76171875 C100.58084229 44.72424561 101.15777832 45.68677246 101.75219727 46.6784668 C103 49 103 49 103 51 C103.66 51 104.32 51 105 51 C105.24363281 50.15953125 105.48726563 49.3190625 105.73828125 48.453125 C107.14874327 44.59291317 109.05937832 41.241503 111.1875 37.75 C112.07828048 36.26519638 112.96749301 34.77945142 113.85546875 33.29296875 C114.59482666 32.05619385 114.59482666 32.05619385 115.34912109 30.79443359 C117.23441703 27.60320358 119.08381683 24.39212327 120.92578125 21.17578125 C121.43035103 20.29564865 121.43035103 20.29564865 121.94511414 19.3977356 C123.3015191 17.03085363 124.65737385 14.66368003 126.00814819 12.2935791 C126.96094825 10.62249538 127.91789414 8.95377757 128.875 7.28515625 C129.70644531 5.82928101 129.70644531 5.82928101 130.5546875 4.34399414 C132 2 132 2 134 0 C136.9359436 -0.24050903 136.9359436 -0.24050903 140.74462891 -0.22705078 C141.43742447 -0.22734283 142.13022003 -0.22763489 142.8440094 -0.22793579 C145.13832034 -0.22654031 147.43230816 -0.21096919 149.7265625 -0.1953125 C151.31553978 -0.19158314 152.90451936 -0.1887358 154.49349976 -0.18673706 C158.67914154 -0.17909453 162.8646449 -0.15944081 167.05023193 -0.1373291 C171.31992724 -0.11688396 175.58964487 -0.1077382 179.859375 -0.09765625 C188.23964691 -0.07619543 196.61980625 -0.04205211 205 0 C204.25196908 3.26926414 203.19081943 5.56291172 201.3671875 8.39453125 C200.81587158 9.25602783 200.26455566 10.11752441 199.6965332 11.00512695 C198.79487427 12.39477661 198.79487427 12.39477661 197.875 13.8125 C197.25262451 14.78082764 196.63024902 15.74915527 195.98901367 16.74682617 C193.99992093 19.83597195 192.00161485 22.91895495 190 26 C189.35530762 26.99257812 188.71061523 27.98515625 188.04638672 29.0078125 C184.27245824 34.81179482 180.48614989 40.60762994 176.69726562 46.40185547 C168.93832836 58.27910092 161.28418111 70.22318767 153.65649414 82.18505859 C153.01059326 83.19648926 152.36469238 84.20791992 151.69921875 85.25 C151.07966309 86.22453125 150.46010742 87.1990625 149.82177734 88.203125 C148.63290871 90.02832991 147.41031538 91.83212955 146.15087891 93.609375 C145.59190918 94.39828125 145.03293945 95.1871875 144.45703125 96 C143.95792236 96.680625 143.45881348 97.36125 142.94458008 98.0625 C141.82046038 99.94094479 141.82046038 99.94094479 142.18847656 101.98413086 C143.10368788 104.25756642 144.20494398 106.18869812 145.52734375 108.25390625 C146.06327148 109.0948584 146.59919922 109.93581055 147.15136719 110.80224609 C147.74079102 111.71312988 148.33021484 112.62401367 148.9375 113.5625 C149.85837402 114.99843506 149.85837402 114.99843506 150.79785156 116.46337891 C156.2427482 124.91501732 161.8251734 133.27385553 167.42282104 141.62466431 C172.29094084 148.88775262 177.0740559 156.18725943 181.65942383 163.63256836 C184.72018207 168.59310757 187.92533188 173.44460795 191.17724609 178.28149414 C194.8556131 183.75876531 198.44147252 189.29295341 202.01074219 194.84179688 C205.47056081 200.21159433 209.0216287 205.51046906 212.63671875 210.77734375 C214 213 214 213 214 215 C204.30776599 215.16225997 194.61600007 215.28660275 184.92270374 215.3626852 C180.42153229 215.39920341 175.9212906 215.44872527 171.4206543 215.52807617 C167.0763557 215.60419048 162.73295067 215.64600092 158.38803673 215.6641407 C156.73132952 215.67706548 155.07467075 215.7023063 153.4183445 215.7401104 C140.47376777 216.02378139 140.47376777 216.02378139 136.94444275 213.57206726 C135.60433413 211.75320195 134.79051291 210.10920276 134 208 C133.50363037 207.14784912 133.00726074 206.29569824 132.49584961 205.41772461 C132.07311768 204.60827393 131.65038574 203.79882324 131.21484375 202.96484375 C127.52129734 196.05110092 123.54186291 189.31362839 119.5625 182.5625 C118.82991456 181.3171535 118.09749209 180.07171111 117.36523438 178.82617188 C117.00489105 178.213414 116.64454773 177.60065613 116.27328491 176.96932983 C115.5574627 175.75161834 114.84198288 174.53370551 114.12686157 173.31558228 C112.39557449 170.36746808 110.65794556 167.42354256 108.90576172 164.48779297 C108.26525879 163.40771973 107.62475586 162.32764648 106.96484375 161.21484375 C106.39241943 160.25570068 105.81999512 159.29655762 105.23022461 158.30834961 C104 156 104 156 104 154 C100.94638115 156.65655386 99.13688351 159.94999731 97.1875 163.4375 C96.83349121 164.06293701 96.47948242 164.68837402 96.11474609 165.33276367 C93.99868077 169.10598282 92.0169241 172.92084985 90.125 176.8125 C87.28231803 182.62990108 84.00960483 188.13879923 80.68994141 193.69116211 C77.58604167 198.91489904 74.78273152 204.19767084 72.15625 209.6796875 C71 212 71 212 69 215 C66.54534151 215.28679046 64.3435516 215.37873005 61.88818359 215.34057617 C61.15637375 215.34101425 60.4245639 215.34145233 59.670578 215.34190369 C57.24626185 215.33980989 54.82263316 215.3164519 52.3984375 215.29296875 C50.71978127 215.28737488 49.04112015 215.28310379 47.36245728 215.28010559 C42.94000778 215.26864033 38.51785294 215.23915891 34.09552002 215.20599365 C29.5845539 215.17532884 25.07354026 215.16160795 20.5625 215.14648438 C11.70820373 215.11429065 2.85412635 215.06307417 -6 215 C-4.51464256 210.27251684 -2.57716671 206.53921003 0.25 202.5 C4.56614681 196.18241737 8.7224632 189.77869108 12.8125 183.3125 C17.29199609 176.2432763 21.80212159 169.19669578 26.375 162.1875 C31.2909143 154.65087244 36.15631818 147.08324519 41 139.5 C56.29281768 115.56077348 56.29281768 115.56077348 64 104 C63.44391778 99.55573812 60.67602894 96.14407492 58.25 92.5 C57.24212005 90.96488803 56.23431041 89.4297299 55.2265625 87.89453125 C54.69708008 87.09225098 54.16759766 86.2899707 53.62207031 85.46337891 C50.93624094 81.38450799 48.28294884 77.28456814 45.625 73.1875 C44.52366596 71.49334105 43.42210165 69.79933176 42.3203125 68.10546875 C39.04596897 63.0709012 35.77286981 58.03552566 32.5 53 C31.41667239 51.33332961 30.33333905 49.66666295 29.25 48 C27.08333333 44.66666667 24.91666667 41.33333333 22.75 38 C22.21270264 37.17363037 21.67540527 36.34726074 21.12182617 35.49584961 C20.048178 33.84359833 18.97541108 32.19077405 17.90356445 30.53735352 C15.05433942 26.14481634 12.18658883 21.76578701 9.29296875 17.40234375 C8.6896875 16.48775391 8.08640625 15.57316406 7.46484375 14.63085938 C6.302436 12.86936455 5.13467424 11.1113882 3.9609375 9.35742188 C3.44144531 8.56787109 2.92195313 7.77832031 2.38671875 6.96484375 C1.92483154 6.2699585 1.46294434 5.57507324 0.98706055 4.85913086 C0 3 0 3 0 0 Z " fill="#FDFDFD" transform="translate(278,183)"/>
<path d="M0 0 C14.85 -0.061875 14.85 -0.061875 30 -0.125 C33.09117187 -0.14320801 36.18234375 -0.16141602 39.3671875 -0.18017578 C80.77708527 -0.3265261 80.77708527 -0.3265261 94.0625 11.1875 C100.93737098 18.93430584 100.66058186 29.92536119 100.3515625 39.73828125 C99.85614068 47.85927841 96.78501643 54.34646122 91 60 C86.0017331 64.01426805 81.31374449 65.67729092 75.00390625 66.640625 C73.00792928 66.80167614 73.00792928 66.80167614 72 68 C69.76070114 68.09436529 67.5183825 68.11742327 65.27709961 68.11352539 C64.5746965 68.11367142 63.8722934 68.11381744 63.14860535 68.1139679 C60.81648722 68.11326872 58.484448 68.10547617 56.15234375 68.09765625 C54.53951562 68.09579208 52.92668693 68.09436818 51.31385803 68.09336853 C47.06084643 68.08954323 42.80786876 68.07971285 38.55487061 68.06866455 C33.45628308 68.05665612 28.35768422 68.05204825 23.25908661 68.04621124 C15.50603411 68.03650109 7.75305613 68.01734464 0 68 C0 45.56 0 23.12 0 0 Z " fill="#033567" transform="translate(103,269)"/>
<path d="M0 0 C15.82069702 -0.12032643 15.82069702 -0.12032643 22.6171875 -0.14648438 C27.23643463 -0.16434758 31.85550165 -0.18537166 36.47460938 -0.22631836 C40.20289191 -0.25915757 43.93098101 -0.27690416 47.65939713 -0.28463173 C49.07461716 -0.29013155 50.48982783 -0.30087012 51.90496445 -0.31719017 C63.96678037 -0.45063227 73.93402804 0.50201664 83 9 C88.24309353 15.11694245 88.23209243 24.45766077 88 32.125 C87.35557377 38.74304016 85.7713899 43.29622089 81 48 C70.76534534 56.03160187 60.09091243 56.29408588 47.55859375 56.1953125 C46.18140368 56.19157457 44.80421091 56.18873129 43.42701721 56.18673706 C39.83165935 56.17916194 36.23646739 56.15956741 32.64117432 56.1373291 C28.9606759 56.11673747 25.28014943 56.10759689 21.59960938 56.09765625 C14.39959387 56.07738023 7.20003179 56.03821898 0 56 C0 37.52 0 19.04 0 0 Z " fill="#003366" transform="translate(104,163)"/>
</svg>
